<?xml version="1.0" encoding="UTF-8"?>
<svg id="Layer_2" data-name="Layer 2" xmlns="http://www.w3.org/2000/svg" viewBox="0 0 786.6 168.26">
  <defs>
    <style>
      .cls-1 {
        fill: #e5a05f;
      }

      .cls-2 {
        fill: #161616;
      }
    </style>
  </defs>
  <g id="Layer_1-2" data-name="Layer 1">
    <g>
      <path class="cls-2" d="M194.92,94.22v24.06h-13.19V48.88h26.95c16.66,0,25.22,7.63,25.22,22.67,0,12.96-9.02,22.67-24.75,22.67h-14.23ZM194.92,60.56v21.98h12.84c8.21,0,12.49-3.47,12.49-10.99s-3.82-10.99-12.72-10.99h-12.61Z"/>
      <path class="cls-2" d="M273.12,104.64h-.23c-2.54,9.72-9.14,14.81-18.51,14.81-10.06,0-17.12-5.09-17.12-15.5s6.02-17.12,19.67-17.12h16.19v-2.2c0-7.4-3.01-11.45-10.53-11.45-6.71,0-10.53,3.01-11.8,10.87l-11.91-1.62c1.62-12.15,8.79-19.67,24.18-19.67s22.44,7.87,22.44,21.75v33.78h-12.38v-13.65ZM273.12,97.81v-1.74h-14.34c-6.02,0-9.25,2.2-9.25,5.9s2.43,7.29,9.49,7.29c8.56,0,14.11-4.86,14.11-11.45Z"/>
      <path class="cls-2" d="M305.86,118.28h-12.49V47.37h12.49v70.91Z"/>
      <path class="cls-2" d="M311.29,91.79c0-18.39,10.87-29.27,27.76-29.27s24.87,10.41,24.87,25.33c0,2.2,0,4.4-.23,7.29h-39.91c1.16,9.14,6.48,13.65,15.38,13.65s11.92-4.28,13.53-9.83l10.87,3.12c-2.78,10.41-10.18,17.58-24.52,17.58-16.66,0-27.76-9.95-27.76-27.88ZM323.9,85.9h28.46c-.69-8.44-5.09-12.84-13.65-12.84s-13.42,4.05-14.81,12.84Z"/>
      <path class="cls-2" d="M373.18,74.44h-7.4v-10.53h7.4v-14.46h12.38v14.46h16.08v10.53h-16.08v25.22c0,5.32,2.08,7.98,7.52,7.98,2.78,0,5.32-.69,7.75-1.27l1.5,11.45c-3.93,1.27-6.82,1.97-12.15,1.97-11.91,0-17-7.87-17-18.05v-27.3Z"/>
      <path class="cls-2" d="M410.66,74.44h-7.4v-10.53h7.4v-14.46h12.38v14.46h16.08v10.53h-16.08v25.22c0,5.32,2.08,7.98,7.52,7.98,2.78,0,5.32-.69,7.75-1.27l1.5,11.45c-3.93,1.27-6.83,1.97-12.15,1.97-11.91,0-17-7.87-17-18.05v-27.3Z"/>
      <path class="cls-2" d="M441.77,91.79c0-18.39,10.87-29.27,27.76-29.27s24.87,10.41,24.87,25.33c0,2.2,0,4.4-.23,7.29h-39.91c1.16,9.14,6.48,13.65,15.39,13.65s11.91-4.28,13.53-9.83l10.87,3.12c-2.78,10.41-10.18,17.58-24.52,17.58-16.66,0-27.76-9.95-27.76-27.88ZM454.38,85.9h28.46c-.69-8.44-5.09-12.84-13.65-12.84s-13.42,4.05-14.81,12.84Z"/>
      <path class="cls-2" d="M513.38,92.14v26.14h-13.19V48.88h47.89v12.49h-34.7v18.39h31.35v12.38h-31.35Z"/>
      <path class="cls-2" d="M555.25,56.63v-9.25h13.53v9.25h-13.53ZM555.83,118.28v-54.37h12.49v54.37h-12.49Z"/>
      <path class="cls-2" d="M589.72,118.28h-12.49v-54.37h12.49v14.92h.12c2.43-11.57,9.37-16.31,18.51-16.31,13.07,0,18.04,8.56,18.04,20.36v35.4h-12.49v-32.16c0-6.59-2.89-12.38-11.34-12.38-7.98,0-12.84,4.63-12.84,12.38v32.16Z"/>
      <path class="cls-2" d="M672.32,102.9h-.23c-2.43,10.99-8.79,16.89-19.32,16.89-14.11,0-21.4-10.87-21.4-28.46s7.75-28.92,21.4-28.8c10.87-.12,17,5.78,19.43,17h.12v-32.16h12.49v70.91h-12.49v-15.38ZM672.32,91.68v-.93c0-10.41-5.55-17.12-14.46-17.12-9.49,0-14.11,6.48-14.11,17.7s4.4,17.12,14.11,17.12c8.91,0,14.46-6.01,14.46-16.77Z"/>
      <path class="cls-2" d="M690.25,91.79c0-18.39,10.87-29.27,27.76-29.27s24.87,10.41,24.87,25.33c0,2.2,0,4.4-.23,7.29h-39.91c1.16,9.14,6.48,13.65,15.39,13.65s11.91-4.28,13.53-9.83l10.87,3.12c-2.78,10.41-10.18,17.58-24.52,17.58-16.66,0-27.76-9.95-27.76-27.88ZM702.85,85.9h28.46c-.69-8.44-5.09-12.84-13.65-12.84s-13.42,4.05-14.81,12.84Z"/>
      <path class="cls-2" d="M748.43,118.28v-54.37h12.49v17.81h.23c2.43-14.11,7.29-17.81,15.5-17.81h3.12v14h-5.32c-9.72,0-13.53,3.35-13.53,12.84v27.53h-12.49Z"/>
      <path class="cls-1" d="M786.6,104.06v14.23h-14.46v-14.23h14.46Z"/>
    </g>
    <g>
      <path class="cls-1" d="M134.64,20.7c-6.93-10.52-17.97-17.08-32.81-19.51-4.82-.79-9.62-1.19-14.28-1.19-24.42,0-45.91,10.78-62.13,31.18C14.89,44.42,7.16,61.07,3.08,79.31c-3.9,17.43-4.11,35.4-.6,50.6l.03.12c3.06,12.23,14.11,29.45,29.11,29.45,4.59,0,11.4-1.72,17.84-9.89,2.67-3.34,4.85-6.7,6.78-9.66,5.14-7.9,7.49-10.89,11.84-10.89,1.03,0,2.19.16,3.48.47,3.61-10.75,7.13-21.03,8.32-23.94,1.2-2.93,3.42-6.98,6.61-12.05-.25-.64-.47-1.29-.65-1.96-1.62-5.87-.87-12.88,2.15-20.26,2.96-7.23,7.6-13.29,13.43-17.55,5.27-3.84,11.21-5.99,16.75-6.06h.08c.97,0,1.91.18,2.81.55,1.55.63,2.85,1.79,3.66,3.25,1.32,2.37,1.23,5.27-.23,7.56-.83,1.31-.7,2.19.99,6.68,1.93,5.12,4.58,12.13,1.29,21.13-3.87,10.62-9.97,15.22-14.43,17.22-1.29,5.87-2.55,10.33-3.74,13.24-.35.87-1.03,2.35-1.92,4.28,5.43-4.13,10.68-9.52,15.5-16.02,11.07-14.94,18.5-33.97,19.88-50.9,1.08-13.23-1.49-24.99-7.43-33.99ZM28.58,99.52c-6.74,0-12.2-5.46-12.2-12.2s5.46-12.2,12.2-12.2,12.2,5.46,12.2,12.2c0,6.74-5.46,12.2-12.2,12.2ZM42.13,67c-6.74,0-12.2-5.46-12.2-12.2s5.46-12.2,12.2-12.2,12.2,5.46,12.2,12.2-5.46,12.2-12.2,12.2ZM66.53,42.6c-6.74,0-12.2-5.46-12.2-12.2s5.46-12.2,12.2-12.2,12.2,5.46,12.2,12.2c0,6.74-5.46,12.2-12.2,12.2ZM104.22,39.96c-6.74,0-12.2-5.46-12.2-12.2s5.46-12.2,12.2-12.2,12.2,5.46,12.2,12.2-5.46,12.2-12.2,12.2Z"/>
      <path class="cls-1" d="M119.11,54.45c-.15-.26-.37-.46-.64-.57-.16-.07-.33-.1-.51-.1-7.98.09-19.08,6.34-24.61,19.82-2.51,6.12-3.17,11.77-1.91,16.33.33,1.19.79,2.29,1.36,3.3l14.59,6.06c.72-.19,1.44-.44,2.15-.75,3.38-1.5,8.08-5.1,11.24-13.76,2.51-6.88.5-12.2-1.27-16.89-1.69-4.48-3.03-8.03-.43-12.11.26-.4.27-.91.04-1.33ZM116.84,82.66c-.01.26-.41,6.51-7.02,10.67-.12.08-.25.14-.38.2-1.17.49-2.52.07-3.2-1.01-.37-.59-.49-1.28-.33-1.96.15-.67.56-1.25,1.15-1.62,4.27-2.69,4.59-6.41,4.61-6.57.05-.97.67-1.86,1.59-2.24.08-.03.16-.06.25-.09.29-.09.58-.12.89-.11,1.43.07,2.53,1.3,2.46,2.72Z"/>
      <path class="cls-1" d="M85.25,107.87c-2.58,6.3-17.18,50.61-17.8,52.49-.99,3,.51,6.25,3.44,7.45,2.92,1.2,6.28-.07,7.68-2.9.88-1.78,21.58-43.67,24.13-49.9,1.28-3.11,2.52-8.05,3.5-12.55l-14.59-6.06c-2.46,3.89-5.05,8.3-6.35,11.46Z"/>
    </g>
  </g>
</svg>